<svg width="91" height="91" viewBox="0 0 91 91" fill="none" xmlns="http://www.w3.org/2000/svg">
<circle cx="45.5" cy="45.5" r="45" stroke="#FFB800"/>
<path d="M54.4745 34.8728C55.0398 34.2967 55.0394 34.2964 55.0391 34.296L55.0383 34.2953L55.0366 34.2936L55.0328 34.2899L55.0228 34.2805C55.0153 34.2733 55.0058 34.2645 54.9943 34.2542C54.9715 34.2335 54.9409 34.2067 54.9028 34.1753C54.8267 34.1124 54.7198 34.0301 54.5834 33.9398C54.3114 33.7596 53.9167 33.5434 53.4111 33.3872C52.3783 33.0679 50.9463 33.0197 49.2576 33.9113C46.5164 35.3561 42.47 37.4645 40.7889 38.2811L40.7755 38.2877L40.7623 38.2946C39.4378 38.9997 38.292 38.7829 37.4616 38.2205C36.5803 37.6236 36.0874 36.6647 36.0874 35.9449C36.0874 34.7647 36.7931 33.8971 38.0987 33.1665L38.111 33.1597L38.123 33.1524C41.9732 30.8183 50.1075 26.2524 53.4906 24.4548L53.4908 24.4547C54.4674 23.9353 55.1698 23.7302 55.9021 23.8327C56.6602 23.9387 57.5973 24.3951 58.9729 25.554L58.9734 25.5545C60.7153 27.0194 62.3617 28.4198 63.5726 29.4541C64.1781 29.9712 64.6746 30.3967 65.0197 30.6928C65.1922 30.8409 65.3269 30.9566 65.4184 31.0353L65.5226 31.125L65.5491 31.1478L65.5558 31.1536L65.5575 31.155L65.5579 31.1554L65.558 31.1555L65.558 31.1556L65.5676 31.1636L66.0848 30.544C65.5676 31.1636 65.5679 31.1639 65.5683 31.1641L65.5689 31.1647L65.5702 31.1658L65.5732 31.1682L65.5804 31.1741L65.5994 31.1892C65.6143 31.2008 65.6334 31.2153 65.6566 31.2322C65.7029 31.266 65.7661 31.3094 65.8454 31.3582C66.0034 31.4554 66.2279 31.5753 66.5122 31.6807C67.0845 31.8929 67.8972 32.0451 68.8782 31.8384L68.8787 31.8383C70.8648 31.4183 73.4136 30.86 75.4642 30.4069C76.4899 30.1803 77.3916 29.9799 78.0368 29.8362L78.0879 29.8248V47.7976C78.082 47.7988 78.0762 47.7999 78.0703 47.8011C77.6633 47.8803 77.1118 47.987 76.5336 48.0971C75.3601 48.3205 74.1248 48.5482 73.7237 48.5986L73.7236 48.5986C73.5353 48.6223 73.3392 48.6601 73.1286 48.7007C72.6685 48.7895 72.1391 48.8916 71.4694 48.8892C70.5675 48.886 69.6264 48.6675 68.8406 47.9122L68.8398 47.9114C67.3294 46.4638 63.8831 43.0638 60.8086 40.02C59.2726 38.4993 57.8313 37.0694 56.774 36.0197C56.2454 35.4948 55.8128 35.065 55.5123 34.7664L55.1653 34.4215L55.0746 34.3313L55.0514 34.3083L55.0456 34.3025L55.0441 34.301L55.0437 34.3006C55.0437 34.3006 55.0436 34.3005 54.4745 34.8728ZM54.4745 34.8728L55.0398 34.2967L55.0436 34.3005L54.4745 34.8728ZM64.8731 52.5126L64.8142 52.4538C57.9128 45.5523 57.0289 44.6691 56.1464 43.7846C55.5412 43.1778 54.9366 42.5704 52.3912 40.0195C52.3898 40.0181 52.3884 40.0167 52.387 40.0153L52.9583 39.4452C52.3889 40.0172 52.3891 40.0174 52.3894 40.0177L52.3898 40.0181L52.3907 40.0189L52.3853 40.0139C52.3773 40.0065 52.3628 39.9931 52.3421 39.975C52.3005 39.9388 52.2345 39.8839 52.1465 39.819C51.9693 39.6884 51.7109 39.5232 51.3909 39.3869C50.7599 39.1182 49.907 38.9657 48.9196 39.3989L48.9193 39.3991C47.1934 40.1553 44.9677 41.1876 43.2841 41.9799C41.3839 42.9741 39.9184 43.3382 39.1052 43.3328M64.8731 52.5126L39.1106 42.5257M64.8731 52.5126L64.9232 52.5454C65.6579 53.3535 65.6344 54.6064 64.8649 55.3772C64.0665 56.1718 62.7661 56.1699 61.9766 55.3814C61.9618 55.3662 61.665 55.0611 61.2331 54.6279C60.7853 54.1788 60.1835 53.5831 59.5688 52.9983C58.9576 52.4168 58.3199 51.8327 57.8038 51.4139C57.5505 51.2083 57.2989 51.0197 57.0806 50.8921C56.9773 50.8318 56.8344 50.7567 56.6753 50.7143C56.5702 50.6864 56.1286 50.5838 55.777 50.9374L55.7766 50.9378C55.4262 51.2909 55.5321 51.7343 55.5553 51.8256C55.5948 51.9813 55.6652 52.124 55.7236 52.2301C55.8466 52.4535 56.0296 52.7145 56.2311 52.9802C56.641 53.5207 57.2135 54.1922 57.7843 54.8388C58.3582 55.4887 58.9431 56.1274 59.3839 56.6053C59.5076 56.7395 59.6148 56.8554 59.7087 56.9569C59.7872 57.0418 59.8564 57.1167 59.9182 57.1837C59.9833 57.2543 60.032 57.3074 60.0641 57.3431C60.0678 57.3472 60.0711 57.3508 60.074 57.3541L60.0997 57.385C60.7755 58.1975 60.7434 59.3795 60.0084 60.1144L60.0082 60.1146C59.2482 60.875 58.0154 60.8928 57.2041 60.1622L57.1692 60.1307L57.1381 60.1023L56.939 59.9192C56.7668 59.7609 56.5206 59.5348 56.2242 59.2646C55.6317 58.7247 54.8369 58.0072 54.0291 57.3008C53.2242 56.5968 52.3948 55.8937 51.7365 55.3875C51.4113 55.1374 51.1051 54.9176 50.8541 54.7697C50.7343 54.6991 50.5868 54.6205 50.4344 54.5715C50.3598 54.5475 50.2383 54.5153 50.0934 54.517C49.9456 54.5187 49.693 54.5589 49.4809 54.7698L49.4791 54.7715C49.1225 55.1281 49.2309 55.572 49.2646 55.6867C49.312 55.8484 49.3936 55.991 49.4575 56.0917C49.593 56.3054 49.7915 56.5493 50.0063 56.7929C50.4443 57.2899 51.0534 57.9014 51.6589 58.486C52.2679 59.0741 52.8875 59.6487 53.3539 60.0755C53.5873 60.2891 53.7829 60.4662 53.9203 60.5901C53.9891 60.652 54.0433 60.7006 54.0804 60.7339L54.1179 60.7674C54.2197 60.8702 54.4156 61.0579 54.476 61.1155C55.2648 61.9155 55.2622 63.2082 54.4708 63.9997C53.6731 64.7932 52.376 64.7924 51.5837 64.0039L51.5812 64.0013L51.5666 63.9862L51.5162 63.9341L51.34 63.752C51.1914 63.5989 50.9842 63.386 50.7372 63.1342C50.2435 62.6309 49.5895 61.9709 48.9273 61.3229C48.2678 60.6775 47.5896 60.0335 47.0508 59.5674C46.7852 59.3378 46.5317 59.1322 46.3213 58.9908C46.222 58.9241 46.0919 58.8437 45.9521 58.7898C45.8845 58.7637 45.765 58.7239 45.6175 58.7194C45.4636 58.7146 45.197 58.7492 44.9763 58.9717C44.6376 59.3132 44.7308 59.7391 44.7529 59.8313C44.7887 59.9807 44.8537 60.1141 44.9044 60.208C45.0119 60.4069 45.1703 60.6342 45.3402 60.8598C45.6872 61.3203 46.1709 61.889 46.6521 62.4334C47.6009 63.5068 48.5976 64.5508 48.6613 64.6159C49.4573 65.4157 49.4543 66.714 48.6627 67.5102C47.8646 68.3059 46.565 68.3048 45.7713 67.5116C45.5002 67.2382 45.1411 66.8528 44.8418 66.5261C44.7288 66.4028 44.6256 66.2891 44.5405 66.1949C44.774 64.0702 44.157 61.8788 42.5531 60.2314L42.5518 60.23C41.7965 59.4578 40.8812 58.8688 39.8697 58.5019C39.5437 57.4125 38.9619 56.4078 38.1403 55.5606L38.1393 55.5595C37.4097 54.8099 36.5285 54.2376 35.5582 53.8713C35.2284 52.8747 34.6799 51.9614 33.9302 51.1898C33.2019 50.4395 32.3197 49.8692 31.3495 49.5038C31.0203 48.5019 30.4698 47.5931 29.7252 46.8194L29.7227 46.8168C26.8825 43.8922 21.8114 43.9656 18.7674 46.8649L18.7673 46.8649L18.7616 46.8705C18.0354 47.5762 17.4691 48.3954 17.0588 49.2786C16.4517 49.0505 15.8616 48.8493 15.3811 48.6925C15.1661 48.6223 14.972 48.5607 14.8071 48.5093V27.7647L20.1831 29.6367C22.0197 30.3755 23.6044 30.3398 24.7421 30.1059C25.3099 29.9892 25.7635 29.824 26.0807 29.6844C26.2394 29.6146 26.3647 29.5509 26.4538 29.5024C26.4984 29.4782 26.534 29.4577 26.5604 29.4421C26.5735 29.4343 26.5844 29.4277 26.5928 29.4225L26.6038 29.4156L26.608 29.413L26.6097 29.4119L26.6105 29.4114C26.6108 29.4112 26.6112 29.4109 26.1767 28.7326L26.6112 29.411L26.6181 29.4065L26.6182 29.4064L26.6183 29.4064L26.6191 29.4058L26.623 29.4033L26.6397 29.3924L26.7074 29.3486C26.7674 29.3099 26.8567 29.2527 26.972 29.1796C27.2028 29.0334 27.538 28.8238 27.953 28.572C28.7836 28.0681 29.9305 27.3971 31.1979 26.7271C32.4676 26.056 33.8452 25.3928 35.1393 24.8993C36.4524 24.3986 37.6029 24.103 38.444 24.103C40.2661 24.103 41.5697 24.6279 42.4088 25.1354C42.5704 25.2331 42.7152 25.3305 42.8435 25.4237C42.2454 25.7485 41.4299 26.1952 40.5356 26.6964C38.7336 27.7063 36.5773 28.9566 35.2475 29.8749M64.8731 52.5126L35.6913 30.5493M39.1052 43.3328L39.1106 42.5257M39.1052 43.3328C39.1052 43.3328 39.1053 43.3328 39.1053 43.3328L39.1106 42.5257M39.1052 43.3328C35.0856 43.3064 31.8122 40.0732 31.8122 36.0416C31.8122 33.4308 33.196 31.1628 35.2475 29.8749M39.1106 42.5257C35.5268 42.5023 32.6193 39.6218 32.6193 36.0416C32.6193 33.7191 33.8523 31.697 35.6913 30.5493M35.2475 29.8749C35.2423 29.8785 35.2372 29.882 35.2321 29.8856L35.6913 30.5493M35.2475 29.8749C35.253 29.8715 35.2585 29.868 35.264 29.8646L35.6913 30.5493M35.258 61.8105L34.6588 63.3499L33.063 63.8457C32.9516 63.8802 32.8403 63.9157 32.7289 63.9511C32.1119 64.1476 31.4957 64.3438 30.8879 64.3909C30.2171 64.4429 29.6977 64.301 29.2981 63.8173C28.859 63.2812 28.8313 62.8466 28.927 62.3908C28.9813 62.1321 29.0777 61.865 29.2001 61.5509C29.2161 61.5099 29.2326 61.4677 29.2497 61.4244C29.3548 61.1571 29.476 60.8486 29.5627 60.5418L29.9312 59.2368L28.6084 59.5352C28.3515 59.5931 28.064 59.6804 27.8004 59.7605C27.7089 59.7883 27.6204 59.8152 27.537 59.8396C27.1846 59.9431 26.8623 60.0245 26.5573 60.0559C26.2572 60.0868 26.0035 60.0658 25.7823 59.9865C25.5689 59.91 25.3388 59.7629 25.1046 59.4662L25.1043 59.4657C24.8472 59.1405 24.7337 58.8744 24.6866 58.6575C24.6395 58.441 24.6485 58.2271 24.701 57.9905C24.7561 57.7426 24.8537 57.4893 24.9805 57.1807C24.993 57.1503 25.0059 57.1191 25.019 57.0872C25.1306 56.8172 25.2628 56.4974 25.3547 56.1699L25.7209 54.8636L24.3982 55.1651C24.1306 55.2261 23.8379 55.3183 23.575 55.4012C23.4936 55.4268 23.4151 55.4515 23.3411 55.4742C22.9999 55.5785 22.6936 55.6592 22.401 55.6906C22.1155 55.7212 21.8645 55.702 21.6322 55.6201C21.404 55.5396 21.1474 55.3825 20.872 55.0679C20.3915 54.5169 20.2705 53.7185 20.5089 52.7813C20.7469 51.8453 21.3206 50.8965 22.019 50.2259C23.3573 48.9512 25.2956 48.9739 26.3569 50.062C27.0145 50.7381 27.197 51.7389 26.9077 52.7709L26.5403 54.0818L27.8667 53.775C28.909 53.534 29.9084 53.7562 30.57 54.4281C31.227 55.1074 31.4087 56.1081 31.1178 57.1398L30.7485 58.4495L32.0748 58.1455C33.1222 57.9055 34.1224 58.1263 34.7791 58.7979C35.5181 59.5583 35.6878 60.7064 35.258 61.8105ZM34.0545 64.909L34.6511 63.3753L36.2517 62.8733C37.3634 62.5246 38.4793 62.7393 39.1999 63.4772C40.2531 64.5644 40.2057 66.4833 38.8742 67.7576C38.2029 68.3981 37.1358 68.9046 36.0792 69.0598C35.0049 69.2177 34.161 68.9903 33.7061 68.4721L33.7038 68.4694C33.4236 68.153 33.2962 67.8789 33.2419 67.6442C33.187 67.4071 33.1954 67.1605 33.2578 66.8839C33.3219 66.5996 33.4383 66.3029 33.5879 65.9669C33.628 65.8769 33.6725 65.78 33.7189 65.6789C33.8319 65.4326 33.9561 65.162 34.0545 64.909Z" fill="#FCD161" stroke="#FCD161" stroke-width="1.61413"/>
</svg>
