<svg width="91" height="91" viewBox="0 0 91 91" fill="none" xmlns="http://www.w3.org/2000/svg">
<circle cx="45.5" cy="45.5" r="45" stroke="#FFB800"/>
<path d="M60.0745 71.2767H59.7873V65.8192C59.7873 62.4686 57.2794 59.6947 54.0426 59.2709V58.3512C54.0426 56.2922 52.3675 54.6172 50.3086 54.6172H29.6277C27.5688 54.6172 25.8936 56.2922 25.8936 58.3512V59.2709C22.6569 59.6947 20.149 62.4686 20.149 65.8192V71.2767H19.8617C19.3858 71.2767 19 71.6624 19 72.1384C19 72.6144 19.3858 73.0001 19.8617 73.0001H60.0745C60.5504 73.0001 60.9362 72.6144 60.9362 72.1384C60.9362 71.6624 60.5504 71.2767 60.0745 71.2767ZM58.0638 71.2767H21.8723V65.8192C21.8723 63.1267 24.0628 60.9362 26.7553 60.9362H30.2022C30.678 60.9362 31.0638 60.5505 31.0638 60.0746C31.0638 59.5986 30.678 59.2129 30.2022 59.2129H27.617V58.3512C27.617 57.2426 28.5191 56.3405 29.6277 56.3405H50.3085C51.4171 56.3405 52.3192 57.2426 52.3192 58.3512V59.2129H33.649C33.1731 59.2129 32.7873 59.5986 32.7873 60.0746C32.7873 60.5505 33.1731 60.9362 33.649 60.9362H53.1808C55.8733 60.9362 58.0638 63.1267 58.0638 65.8192V71.2767Z" fill="#FCD161"/>
<path d="M68.6914 31.6383C67.332 31.6383 66.0536 32.2877 65.2457 33.3617H48.8722V29.9149H49.1594C49.6353 29.9149 50.0211 29.5292 50.0211 29.0532C50.0211 28.5772 49.6353 28.1915 49.1594 28.1915H48.8722V26.3667C50.5169 25.9765 51.7446 24.4964 51.7446 22.7341C51.7446 20.6751 50.0694 19 48.0106 19H31.9254C29.8666 19 28.1914 20.6751 28.1914 22.734C28.1914 24.4964 29.4191 25.9764 31.0637 26.3666V28.1914H30.7766C30.3007 28.1914 29.9149 28.5771 29.9149 29.0531C29.9149 29.529 30.3007 29.9147 30.7766 29.9147H31.0637V41.9786H30.7766C30.3007 41.9786 29.9149 42.3643 29.9149 42.8403C29.9149 43.3162 30.3007 43.7019 30.7766 43.7019H31.0637V45.5268C29.4191 45.9169 28.1914 47.397 28.1914 49.1593C28.1914 51.2183 29.8666 52.8933 31.9254 52.8933H48.0106C50.0694 52.8933 51.7446 51.2183 51.7446 49.1593C51.7446 47.3969 50.5169 45.9169 48.8722 45.5268V43.7019H49.1594C49.6353 43.7019 50.0211 43.3162 50.0211 42.8403C50.0211 42.3643 49.6353 41.9786 49.1594 41.9786H48.8722V35.0849H65.7068C66.0144 35.0849 66.2986 34.9209 66.4526 34.6549C66.9144 33.8571 67.7721 33.3616 68.6914 33.3616C70.1169 33.3616 71.2765 34.5213 71.2765 35.9467C71.2765 37.3721 70.1169 38.5319 68.6914 38.5319C67.7721 38.5319 66.9144 38.0364 66.4527 37.2385C66.2987 36.9724 66.0145 36.8085 65.707 36.8085H51.4574C50.9815 36.8085 50.5957 37.1942 50.5957 37.6702C50.5957 38.1462 50.9815 38.5319 51.4574 38.5319H65.2457C66.0536 39.6059 67.332 40.2552 68.6914 40.2552C71.0672 40.2552 72.9999 38.3225 72.9999 35.9467C72.9999 33.5709 71.0672 31.6383 68.6914 31.6383ZM50.0212 49.1595C50.0212 50.2681 49.1191 51.1702 48.0106 51.1702H31.9254C30.8168 51.1702 29.9148 50.2681 29.9148 49.1595C29.9148 48.0509 30.8168 47.1489 31.9254 47.1489H48.0106C49.1191 47.149 50.0212 48.0509 50.0212 49.1595ZM47.1489 29.9149V41.9787H32.7872V29.9149H47.1489ZM32.7871 28.1915V26.4681H47.1488V28.1915H32.7871ZM47.1489 43.7022V45.4255H32.7872V43.7022H47.1489ZM48.0106 24.7447H31.9254C30.8168 24.7447 29.9148 23.8426 29.9148 22.734C29.9148 21.6254 30.8168 20.7234 31.9254 20.7234H48.0106C49.1191 20.7234 50.0212 21.6254 50.0212 22.734C50.0212 23.8427 49.1191 24.7447 48.0106 24.7447Z" fill="#FCD161"/>
</svg>
