<svg width="91" height="91" viewBox="0 0 91 91" fill="none" xmlns="http://www.w3.org/2000/svg">
<circle cx="45.5" cy="45.5" r="45" stroke="#FFB800"/>
<mask id="path-2-inside-1_582_1115" fill="white">
<path d="M27.2368 19C25.4625 19 24 20.4368 24 22.18V72H65V22.18C65 20.4368 63.5375 19 61.7632 19H27.2368ZM27.2368 21.12H61.7632C62.3616 21.12 62.8421 21.592 62.8421 22.18V69.88H58.5263V57.16H46.6579V69.88H26.1579V22.18C26.1579 21.592 26.6384 21.12 27.2368 21.12ZM30.4737 25.36V33.84H42.3421V25.36H30.4737ZM46.6579 25.36V33.84H58.5263V25.36H46.6579ZM32.6316 27.48H40.1842V31.72H32.6316V27.48ZM48.8158 27.48H56.3684V31.72H48.8158V27.48ZM30.4737 35.96V44.44H42.3421V35.96H30.4737ZM46.6579 35.96V44.44H58.5263V35.96H46.6579ZM32.6316 38.08H40.1842V42.32H32.6316V38.08ZM48.8158 38.08H56.3684V42.32H48.8158V38.08ZM30.4737 46.56V55.04H42.3421V46.56H30.4737ZM46.6579 46.56V55.04H58.5263V46.56H46.6579ZM32.6316 48.68H40.1842V52.92H32.6316V48.68ZM48.8158 48.68H56.3684V52.92H48.8158V48.68ZM30.4737 57.16V65.64H42.3421V57.16H30.4737ZM32.6316 59.28H40.1842V63.52H32.6316V59.28ZM48.8158 59.28H56.3684V69.88H48.8158V59.28Z"/>
</mask>
<path d="M27.2368 19C25.4625 19 24 20.4368 24 22.18V72H65V22.18C65 20.4368 63.5375 19 61.7632 19H27.2368ZM27.2368 21.12H61.7632C62.3616 21.12 62.8421 21.592 62.8421 22.18V69.88H58.5263V57.16H46.6579V69.88H26.1579V22.18C26.1579 21.592 26.6384 21.12 27.2368 21.12ZM30.4737 25.36V33.84H42.3421V25.36H30.4737ZM46.6579 25.36V33.84H58.5263V25.36H46.6579ZM32.6316 27.48H40.1842V31.72H32.6316V27.48ZM48.8158 27.48H56.3684V31.72H48.8158V27.48ZM30.4737 35.96V44.44H42.3421V35.96H30.4737ZM46.6579 35.96V44.44H58.5263V35.96H46.6579ZM32.6316 38.08H40.1842V42.32H32.6316V38.08ZM48.8158 38.08H56.3684V42.32H48.8158V38.08ZM30.4737 46.56V55.04H42.3421V46.56H30.4737ZM46.6579 46.56V55.04H58.5263V46.56H46.6579ZM32.6316 48.68H40.1842V52.92H32.6316V48.68ZM48.8158 48.68H56.3684V52.92H48.8158V48.68ZM30.4737 57.16V65.64H42.3421V57.16H30.4737ZM32.6316 59.28H40.1842V63.52H32.6316V59.28ZM48.8158 59.28H56.3684V69.88H48.8158V59.28Z" fill="#FCD161"/>
<path d="M24 72H19V77H24V72ZM65 72V77H70V72H65ZM62.8421 69.88V74.88H67.8421V69.88H62.8421ZM58.5263 69.88H53.5263V74.88H58.5263V69.88ZM58.5263 57.16H63.5263V52.16H58.5263V57.16ZM46.6579 57.16V52.16H41.6579V57.16H46.6579ZM46.6579 69.88V74.88H51.6579V69.88H46.6579ZM26.1579 69.88H21.1579V74.88H26.1579V69.88ZM30.4737 25.36V20.36H25.4737V25.36H30.4737ZM30.4737 33.84H25.4737V38.84H30.4737V33.84ZM42.3421 33.84V38.84H47.3421V33.84H42.3421ZM42.3421 25.36H47.3421V20.36H42.3421V25.36ZM46.6579 25.36V20.36H41.6579V25.36H46.6579ZM46.6579 33.84H41.6579V38.84H46.6579V33.84ZM58.5263 33.84V38.84H63.5263V33.84H58.5263ZM58.5263 25.36H63.5263V20.36H58.5263V25.36ZM32.6316 27.48V22.48H27.6316V27.48H32.6316ZM40.1842 27.48H45.1842V22.48H40.1842V27.48ZM40.1842 31.72V36.72H45.1842V31.72H40.1842ZM32.6316 31.72H27.6316V36.72H32.6316V31.72ZM48.8158 27.48V22.48H43.8158V27.48H48.8158ZM56.3684 27.48H61.3684V22.48H56.3684V27.48ZM56.3684 31.72V36.72H61.3684V31.72H56.3684ZM48.8158 31.72H43.8158V36.72H48.8158V31.72ZM30.4737 35.96V30.96H25.4737V35.96H30.4737ZM30.4737 44.44H25.4737V49.44H30.4737V44.44ZM42.3421 44.44V49.44H47.3421V44.44H42.3421ZM42.3421 35.96H47.3421V30.96H42.3421V35.96ZM46.6579 35.96V30.96H41.6579V35.96H46.6579ZM46.6579 44.44H41.6579V49.44H46.6579V44.44ZM58.5263 44.44V49.44H63.5263V44.44H58.5263ZM58.5263 35.96H63.5263V30.96H58.5263V35.96ZM32.6316 38.08V33.08H27.6316V38.08H32.6316ZM40.1842 38.08H45.1842V33.08H40.1842V38.08ZM40.1842 42.32V47.32H45.1842V42.32H40.1842ZM32.6316 42.32H27.6316V47.32H32.6316V42.32ZM48.8158 38.08V33.08H43.8158V38.08H48.8158ZM56.3684 38.08H61.3684V33.08H56.3684V38.08ZM56.3684 42.32V47.32H61.3684V42.32H56.3684ZM48.8158 42.32H43.8158V47.32H48.8158V42.32ZM30.4737 46.56V41.56H25.4737V46.56H30.4737ZM30.4737 55.04H25.4737V60.04H30.4737V55.04ZM42.3421 55.04V60.04H47.3421V55.04H42.3421ZM42.3421 46.56H47.3421V41.56H42.3421V46.56ZM46.6579 46.56V41.56H41.6579V46.56H46.6579ZM46.6579 55.04H41.6579V60.04H46.6579V55.04ZM58.5263 55.04V60.04H63.5263V55.04H58.5263ZM58.5263 46.56H63.5263V41.56H58.5263V46.56ZM32.6316 48.68V43.68H27.6316V48.68H32.6316ZM40.1842 48.68H45.1842V43.68H40.1842V48.68ZM40.1842 52.92V57.92H45.1842V52.92H40.1842ZM32.6316 52.92H27.6316V57.92H32.6316V52.92ZM48.8158 48.68V43.68H43.8158V48.68H48.8158ZM56.3684 48.68H61.3684V43.68H56.3684V48.68ZM56.3684 52.92V57.92H61.3684V52.92H56.3684ZM48.8158 52.92H43.8158V57.92H48.8158V52.92ZM30.4737 57.16V52.16H25.4737V57.16H30.4737ZM30.4737 65.64H25.4737V70.64H30.4737V65.64ZM42.3421 65.64V70.64H47.3421V65.64H42.3421ZM42.3421 57.16H47.3421V52.16H42.3421V57.16ZM32.6316 59.28V54.28H27.6316V59.28H32.6316ZM40.1842 59.28H45.1842V54.28H40.1842V59.28ZM40.1842 63.52V68.52H45.1842V63.52H40.1842ZM32.6316 63.52H27.6316V68.52H32.6316V63.52ZM48.8158 59.28V54.28H43.8158V59.28H48.8158ZM56.3684 59.28H61.3684V54.28H56.3684V59.28ZM56.3684 69.88V74.88H61.3684V69.88H56.3684ZM48.8158 69.88H43.8158V74.88H48.8158V69.88ZM27.2368 14C22.7849 14 19 17.5922 19 22.18H29C29 23.2814 28.14 24 27.2368 24V14ZM19 22.18V72H29V22.18H19ZM24 77H65V67H24V77ZM70 72V22.18H60V72H70ZM70 22.18C70 17.5922 66.2151 14 61.7632 14V24C60.86 24 60 23.2814 60 22.18H70ZM61.7632 14H27.2368V24H61.7632V14ZM27.2368 26.12H61.7632V16.12H27.2368V26.12ZM61.7632 26.12C59.6841 26.12 57.8421 24.4366 57.8421 22.18H67.8421C67.8421 18.7475 65.0392 16.12 61.7632 16.12V26.12ZM57.8421 22.18V69.88H67.8421V22.18H57.8421ZM62.8421 64.88H58.5263V74.88H62.8421V64.88ZM63.5263 69.88V57.16H53.5263V69.88H63.5263ZM58.5263 52.16H46.6579V62.16H58.5263V52.16ZM41.6579 57.16V69.88H51.6579V57.16H41.6579ZM46.6579 64.88H26.1579V74.88H46.6579V64.88ZM31.1579 69.88V22.18H21.1579V69.88H31.1579ZM31.1579 22.18C31.1579 24.4366 29.3159 26.12 27.2368 26.12V16.12C23.9608 16.12 21.1579 18.7475 21.1579 22.18H31.1579ZM25.4737 25.36V33.84H35.4737V25.36H25.4737ZM30.4737 38.84H42.3421V28.84H30.4737V38.84ZM47.3421 33.84V25.36H37.3421V33.84H47.3421ZM42.3421 20.36H30.4737V30.36H42.3421V20.36ZM41.6579 25.36V33.84H51.6579V25.36H41.6579ZM46.6579 38.84H58.5263V28.84H46.6579V38.84ZM63.5263 33.84V25.36H53.5263V33.84H63.5263ZM58.5263 20.36H46.6579V30.36H58.5263V20.36ZM32.6316 32.48H40.1842V22.48H32.6316V32.48ZM35.1842 27.48V31.72H45.1842V27.48H35.1842ZM40.1842 26.72H32.6316V36.72H40.1842V26.72ZM37.6316 31.72V27.48H27.6316V31.72H37.6316ZM48.8158 32.48H56.3684V22.48H48.8158V32.48ZM51.3684 27.48V31.72H61.3684V27.48H51.3684ZM56.3684 26.72H48.8158V36.72H56.3684V26.72ZM53.8158 31.72V27.48H43.8158V31.72H53.8158ZM25.4737 35.96V44.44H35.4737V35.96H25.4737ZM30.4737 49.44H42.3421V39.44H30.4737V49.44ZM47.3421 44.44V35.96H37.3421V44.44H47.3421ZM42.3421 30.96H30.4737V40.96H42.3421V30.96ZM41.6579 35.96V44.44H51.6579V35.96H41.6579ZM46.6579 49.44H58.5263V39.44H46.6579V49.44ZM63.5263 44.44V35.96H53.5263V44.44H63.5263ZM58.5263 30.96H46.6579V40.96H58.5263V30.96ZM32.6316 43.08H40.1842V33.08H32.6316V43.08ZM35.1842 38.08V42.32H45.1842V38.08H35.1842ZM40.1842 37.32H32.6316V47.32H40.1842V37.32ZM37.6316 42.32V38.08H27.6316V42.32H37.6316ZM48.8158 43.08H56.3684V33.08H48.8158V43.08ZM51.3684 38.08V42.32H61.3684V38.08H51.3684ZM56.3684 37.32H48.8158V47.32H56.3684V37.32ZM53.8158 42.32V38.08H43.8158V42.32H53.8158ZM25.4737 46.56V55.04H35.4737V46.56H25.4737ZM30.4737 60.04H42.3421V50.04H30.4737V60.04ZM47.3421 55.04V46.56H37.3421V55.04H47.3421ZM42.3421 41.56H30.4737V51.56H42.3421V41.56ZM41.6579 46.56V55.04H51.6579V46.56H41.6579ZM46.6579 60.04H58.5263V50.04H46.6579V60.04ZM63.5263 55.04V46.56H53.5263V55.04H63.5263ZM58.5263 41.56H46.6579V51.56H58.5263V41.56ZM32.6316 53.68H40.1842V43.68H32.6316V53.68ZM35.1842 48.68V52.92H45.1842V48.68H35.1842ZM40.1842 47.92H32.6316V57.92H40.1842V47.92ZM37.6316 52.92V48.68H27.6316V52.92H37.6316ZM48.8158 53.68H56.3684V43.68H48.8158V53.68ZM51.3684 48.68V52.92H61.3684V48.68H51.3684ZM56.3684 47.92H48.8158V57.92H56.3684V47.92ZM53.8158 52.92V48.68H43.8158V52.92H53.8158ZM25.4737 57.16V65.64H35.4737V57.16H25.4737ZM30.4737 70.64H42.3421V60.64H30.4737V70.64ZM47.3421 65.64V57.16H37.3421V65.64H47.3421ZM42.3421 52.16H30.4737V62.16H42.3421V52.16ZM32.6316 64.28H40.1842V54.28H32.6316V64.28ZM35.1842 59.28V63.52H45.1842V59.28H35.1842ZM40.1842 58.52H32.6316V68.52H40.1842V58.52ZM37.6316 63.52V59.28H27.6316V63.52H37.6316ZM48.8158 64.28H56.3684V54.28H48.8158V64.28ZM51.3684 59.28V69.88H61.3684V59.28H51.3684ZM56.3684 64.88H48.8158V74.88H56.3684V64.88ZM53.8158 69.88V59.28H43.8158V69.88H53.8158Z" fill="#FCD161" mask="url(#path-2-inside-1_582_1115)"/>
</svg>
