<svg width="91" height="91" viewBox="0 0 91 91" fill="none" xmlns="http://www.w3.org/2000/svg">
<circle cx="45.5" cy="45.5" r="45" stroke="#FFB800"/>
<path d="M69.7778 72H21.2222C18.8894 72 17 70.1005 17 67.76V42.32C17 42.32 28.0221 48.0122 38.1111 50.3421V52.92C38.1111 54.0924 39.0548 55.04 40.2222 55.04H50.7778C51.9431 55.04 52.8889 54.0924 52.8889 52.92V50.3421C62.9758 48.0122 74 42.32 74 42.32V67.76C74 70.1005 72.1084 72 69.7778 72ZM48.6667 46.56C49.832 46.56 50.7778 47.5076 50.7778 48.68V50.8C50.7778 51.9724 49.832 52.92 48.6667 52.92H42.3333C41.1659 52.92 40.2222 51.9724 40.2222 50.8V48.68C40.2222 47.5076 41.1659 46.56 42.3333 46.56H48.6667ZM52.8889 46.56C52.8889 45.3876 51.9431 44.44 50.7778 44.44H40.2222C39.0548 44.44 38.1111 45.3876 38.1111 46.56V48.4595C28.0221 46.0597 17 40.2 17 40.2V31.72C17 29.3795 18.8894 27.48 21.2222 27.48H33.8889V23.24C33.8889 20.8995 35.7804 19 38.1111 19H52.8889C55.2196 19 57.1111 20.8995 57.1111 23.24V27.48H69.7778C72.1084 27.48 74 29.3795 74 31.72V40.2C74 40.2 62.9758 46.0597 52.8889 48.4595V46.56ZM52.8889 25.36C52.8889 24.1876 51.9431 23.24 50.7778 23.24H40.2222C39.0548 23.24 38.1111 24.1876 38.1111 25.36C38.1111 26.5302 38.1111 27.48 38.1111 27.48H52.8889C52.8889 27.48 52.8889 26.5302 52.8889 25.36Z" fill="#FCD161"/>
</svg>
