<svg width="91" height="91" viewBox="0 0 91 91" fill="none" xmlns="http://www.w3.org/2000/svg">
<circle cx="45.5" cy="45.5" r="45" stroke="#FFB800"/>
<path d="M66.4922 26.3975H25.6031C24.7176 26.3975 24 27.4897 24 28.8367V74.6191C24 75.9662 24.7176 77.0583 25.6031 77.0583H66.4922C67.3775 77.0583 68.0953 75.9662 68.0953 74.6191V28.8368C68.0953 27.4897 67.3775 26.3975 66.4922 26.3975Z" fill="#FBD061" fill-opacity="0.48"/>
<path d="M66.3616 27.964C66.449 28.0808 66.5902 28.3816 66.5902 28.8368V74.6191C66.5902 75.0743 66.449 75.3751 66.3616 75.4919H25.7336C25.6462 75.3751 25.5052 75.0743 25.5052 74.6191V28.8368C25.5052 28.3815 25.6463 28.0808 25.7337 27.964H66.3616ZM66.4922 26.3975H25.6031C24.7176 26.3975 24 27.4897 24 28.8368V74.6191C24 75.9662 24.7176 77.0583 25.6031 77.0583H66.4921C67.3774 77.0583 68.0953 75.9662 68.0953 74.6191V28.8368C68.0953 27.4897 67.3775 26.3975 66.4922 26.3975Z" fill="#FCD161"/>
<path d="M58.8226 33.458H33.2731C32.3439 33.458 31.5908 34.2389 31.5908 35.2021V67.9348C31.5908 68.8979 32.3439 69.6788 33.2731 69.6788H58.8226C59.7516 69.6788 60.5048 68.898 60.5048 67.9348V35.2021C60.5049 34.239 59.7516 33.458 58.8226 33.458Z" fill="white"/>
<path d="M58.8225 35.0245C58.9202 35.0245 58.9996 35.1041 58.9996 35.202V67.9347C58.9996 68.0326 58.9202 68.1122 58.8225 68.1122H33.273C33.1753 68.1122 33.0959 68.0326 33.0959 67.9347V35.202C33.0959 35.1041 33.1753 35.0245 33.273 35.0245H58.8225ZM58.8225 33.458H33.273C32.3438 33.458 31.5908 34.2389 31.5908 35.202V67.9347C31.5908 68.8979 32.3438 69.6787 33.273 69.6787H58.8226C59.7516 69.6787 60.5048 68.8979 60.5048 67.9347V35.202C60.5048 34.2389 59.7515 33.458 58.8225 33.458Z" fill="#FCD161"/>
<path d="M47.9689 61.327L47.5605 61.3263L46.9168 61.3302L38.2159 61.314L38.2166 60.8779C38.2166 60.8779 38.0319 58.4418 41.4797 57.8247C41.4797 57.8247 44.1041 57.4609 44.2891 56.7103C44.2891 56.7103 44.3894 56.627 44.317 55.7547C44.1627 53.8974 42.9967 53.0215 42.5256 52.3106C42.0545 51.5997 42.0166 50.7804 42.0166 50.7804C42.0169 50.5757 42.0995 50.5008 42.2367 50.3696C42.4063 50.2072 42.3558 50.0342 42.3238 49.8511C42.2019 49.1559 42.193 48.0394 42.3111 47.3402C42.3388 46.5074 43.0746 45.8397 43.0746 45.8397C43.2127 45.7183 43.351 45.5846 43.448 45.4242C43.4752 45.3795 43.5002 45.3316 43.5149 45.2808C43.5706 45.0892 43.3835 44.948 43.4214 44.7441C43.4557 44.5603 43.7585 44.5518 43.9416 44.5421C44.3541 44.5204 44.7687 44.5042 45.1804 44.5379C48.2618 44.7895 49.273 45.9721 49.273 45.9721C49.5124 46.2716 49.6698 46.6375 49.7642 47.0125C49.7925 47.1245 49.8167 47.239 49.8298 47.3542C49.9248 47.9288 49.9235 48.5279 49.8926 49.1083C49.8778 49.3851 49.8465 49.6574 49.807 49.9312C49.7863 50.0745 49.7966 50.2079 49.8884 50.3226C49.9652 50.4185 50.053 50.4857 50.0905 50.6117C50.1081 50.6706 50.1126 50.7342 50.1125 50.7955C50.1125 50.7955 50.0717 51.6146 49.5982 52.3237C49.1247 53.0329 47.9557 53.9045 47.7951 55.7612C47.7196 56.6332 47.8197 56.7169 47.8197 56.7169C48.002 57.4682 50.6252 57.8417 50.6252 57.8417C54.1093 58.5209 53.8777 60.9071 53.8777 60.9071L53.877 61.3431L51.5824 61.3388L51.944 61.3344L51.6352 61.3338L50.9953 61.3326L47.9689 61.327Z" fill="#FCD161"/>
<path d="M39.6094 23.1006H52.4855V30.2546H39.6094V23.1006Z" fill="white"/>
<path d="M52.4859 31.0368H39.61C39.1944 31.0368 38.8574 30.6865 38.8574 30.2536V23.0996C38.8574 22.6667 39.1944 22.3164 39.61 22.3164H52.4859C52.9015 22.3164 53.2385 22.6667 53.2385 23.0996V30.2535C53.2385 30.6865 52.9015 31.0368 52.4859 31.0368ZM40.3626 29.4703H51.7334V23.8829H40.3626V29.4703Z" fill="#FCD161"/>
</svg>
