<svg width="91" height="91" viewBox="0 0 91 91" fill="none" xmlns="http://www.w3.org/2000/svg">
<path d="M66.9563 25.4824H47.2211V22.4234C47.2211 21.338 46.333 16.6016 45.2476 16.6016C44.1621 16.6016 43.2741 21.338 43.2741 22.4234V25.4824H23.5389C21.8614 25.4824 20.5786 26.7652 20.5786 28.344C20.5786 29.9228 21.8614 31.2056 23.5389 31.2056C25.2164 31.2056 26.4992 29.9228 26.4992 28.344C26.4992 28.1466 34.8866 32.0937 43.1754 32.291V64.262C38.5376 64.4594 34.9853 66.1369 34.9853 67.4196C34.9853 67.617 35.084 67.913 35.2813 68.1104H31.5316C30.7422 68.1104 30.1502 68.7024 30.1502 69.3932V72.5508C30.1502 73.2415 30.7422 73.8336 31.5316 73.8336H35.5773C36.3668 73.8336 36.9588 73.2415 36.9588 72.5508V71.8601H53.1417V72.5508C53.1417 73.2415 53.7337 73.8336 54.5231 73.8336H58.5688C59.3582 73.8336 59.9503 73.2415 59.9503 72.5508V69.3932C59.9503 68.7024 59.3582 68.1104 58.5688 68.1104H54.8191C55.0165 67.913 55.1152 67.7157 55.1152 67.4196C55.1152 66.1369 51.5628 64.4594 46.9251 64.262V32.291C55.3125 32.1924 63.6013 28.2453 63.6013 28.344C63.6013 29.9228 64.8841 31.2056 66.5616 31.2056C68.2391 31.2056 69.5218 29.9228 69.5218 28.344C69.9166 26.7652 68.6338 25.4824 66.9563 25.4824Z" stroke="#FFB800" stroke-width="2" stroke-linejoin="round"/>
<path d="M14.855 57.0581L23.6371 31.3037L32.518 57.9462" stroke="#FFB800" stroke-width="2" stroke-linejoin="round"/>
<path d="M58.1738 58.0449L66.956 31.3037L75.9355 58.933" stroke="#FFB800" stroke-width="2" stroke-linejoin="round"/>
<path d="M32.518 57.453C32.518 59.3278 28.571 61.0053 23.6372 61.0053C18.7034 61.0053 14.7563 59.3278 14.7563 57.453C14.7563 55.5782 32.518 55.5782 32.518 57.453Z" stroke="#FFB800" stroke-width="2" stroke-linejoin="round"/>
<path d="M75.8373 58.4393C75.8373 60.3142 71.8903 61.9917 66.9565 61.9917C62.0227 61.9917 58.0757 60.3142 58.0757 58.4393C58.1744 56.5645 75.8373 56.5645 75.8373 58.4393Z" stroke="#FFB800" stroke-width="2" stroke-linejoin="round"/>
<circle cx="45.5" cy="45.5" r="45" stroke="#FFB800"/>
</svg>
