<svg width="91" height="91" viewBox="0 0 91 91" fill="none" xmlns="http://www.w3.org/2000/svg">
<circle cx="45.5" cy="45.5" r="45" stroke="#FFB800"/>
<mask id="path-2-inside-1_582_1116" fill="white">
<path d="M45.5992 17.0809C45.4516 16.9796 45.213 16.9699 45.0659 17.0717L37.8083 22.1346C37.6612 22.2369 37.583 22.1702 37.583 21.9926V18.4859C37.583 18.3083 37.3552 18.2142 37.1752 18.2142H32.4604C32.2809 18.2142 32.2079 18.3083 32.2079 18.4859V25.7182C32.2079 25.8958 32.0526 26.1227 31.905 26.2245L14.1028 38.6153C13.9558 38.7176 13.964 38.8418 14.1434 38.8418H22.0557C22.2352 38.8418 22.3766 38.9023 22.3766 39.0799V73.6723C22.3774 73.7587 22.4123 73.8414 22.4739 73.9026C22.5355 73.9639 22.6189 73.9988 22.7062 74H67.9039C68.0833 74 68.2597 73.8504 68.2597 73.6723V39.0799C68.2597 38.9023 68.3744 38.8418 68.5543 38.8418H76.8461C77.0261 38.8418 77.0518 38.7176 76.9042 38.6163L45.5992 17.0809ZM57.7676 37.2143C58.4198 37.2143 59.0452 37.4707 59.5064 37.9271C59.9675 38.3835 60.2266 39.0024 60.2266 39.6478C60.2266 40.2932 59.9675 40.9122 59.5064 41.3686C59.0452 41.8249 58.4198 42.0813 57.7676 42.0813C57.1154 42.0813 56.49 41.8249 56.0288 41.3686C55.5677 40.9122 55.3086 40.2932 55.3086 39.6478C55.3086 39.0024 55.5677 38.3835 56.0288 37.9271C56.49 37.4707 57.1154 37.2143 57.7676 37.2143ZM46.1478 51.602C46.6217 51.602 47.0763 51.7883 47.4114 52.12C47.7465 52.4516 47.9347 52.9014 47.9347 53.3704C47.9347 53.8394 47.7465 54.2892 47.4114 54.6208C47.0763 54.9524 46.6217 55.1387 46.1478 55.1387C45.6739 55.1387 45.2194 54.9524 44.8843 54.6208C44.5492 54.2892 44.3609 53.8394 44.3609 53.3704C44.3609 52.9014 44.5492 52.4516 44.8843 52.12C45.2194 51.7883 45.6739 51.602 46.1478 51.602ZM34.2483 37.2098C34.9005 37.2098 35.5259 37.4662 35.9871 37.9225C36.4482 38.3789 36.7073 38.9979 36.7073 39.6432C36.7073 40.2887 36.4482 40.9076 35.9871 41.364C35.5259 41.8203 34.9005 42.0767 34.2483 42.0767C33.5962 42.0767 32.9707 41.8203 32.5096 41.364C32.0484 40.9076 31.7893 40.2887 31.7893 39.6432C31.7893 38.9979 32.0484 38.3789 32.5096 37.9225C32.9707 37.4662 33.5962 37.2098 34.2483 37.2098ZM63.1643 55.9642C62.8246 55.9642 62.4989 55.8307 62.2586 55.5931C62.0183 55.3555 61.8832 55.0332 61.8829 54.697L61.8813 46.9529C61.8812 46.9179 61.8671 46.8845 61.8422 46.8598C61.8172 46.8351 61.7834 46.8212 61.7482 46.8211H61.4767C61.4414 46.8212 61.4076 46.8351 61.3826 46.8598C61.3577 46.8845 61.3436 46.9179 61.3435 46.9529V68.6806C61.3435 69.1144 61.1694 69.5304 60.8594 69.8372C60.5495 70.1439 60.1291 70.3162 59.6908 70.3162C59.2525 70.3162 58.8321 70.1439 58.5221 69.8372C58.2122 69.5304 58.0381 69.1144 58.0381 68.6806V55.896C58.0381 55.8028 57.9944 55.7637 57.9013 55.7637H57.6349C57.5419 55.7637 57.4982 55.8023 57.4982 55.896V68.6806C57.4982 69.1144 57.324 69.5304 57.0141 69.8372C56.7042 70.1439 56.2838 70.3162 55.8455 70.3162C55.4071 70.3162 54.9868 70.1439 54.6768 69.8372C54.3669 69.5304 54.1928 69.1144 54.1928 68.6806V46.9529C54.1926 46.9179 54.1786 46.8845 54.1536 46.8598C54.1287 46.8351 54.0949 46.8212 54.0596 46.8211H53.7881C53.7528 46.8212 53.719 46.8351 53.694 46.8598C53.6691 46.8845 53.655 46.9179 53.6549 46.9529L52.6033 53.2462C52.5653 53.3887 52.5159 53.4808 52.4568 53.5856C52.176 54.0818 49.5473 59.1605 49.5473 59.1605C49.5113 59.2241 49.4825 59.4078 49.4825 59.4078C49.4825 59.4078 49.4774 68.8145 49.4697 68.8873C49.3859 69.6302 48.7061 70.3167 47.8782 70.3167C47.0019 70.3167 46.3653 69.5941 46.3525 68.8028L46.3509 64.7938C46.3508 64.7589 46.3367 64.7254 46.3118 64.7007C46.2868 64.6761 46.253 64.6621 46.2178 64.662H46.0177C45.9825 64.6621 45.9487 64.6761 45.9237 64.7007C45.8988 64.7254 45.8847 64.7589 45.8846 64.7938L45.884 68.7819C45.8712 69.5732 45.0813 70.3167 44.2051 70.3167C43.3289 70.3167 42.6326 69.5692 42.6198 68.7778V59.2526C42.6198 59.1798 42.59 59.0694 42.5529 59.0063L39.6563 53.6248C39.5621 53.4609 39.4928 53.2841 39.4507 53.1002C39.4455 53.0864 37.5203 46.8806 37.5203 46.8806C37.509 46.8546 37.4519 46.7457 37.3182 46.7457H37.0477C36.9716 46.7447 36.9269 46.8088 36.9469 46.8811L40.7804 59.2963C40.801 59.3686 40.7804 59.4953 40.6467 59.4953H37.9574C37.8813 59.4953 37.8257 59.5564 37.8257 59.6317L37.8262 68.6801C37.8262 69.1139 37.6521 69.5299 37.3422 69.8366C37.0322 70.1434 36.6119 70.3157 36.1736 70.3157C35.7352 70.3157 35.3149 70.1434 35.0049 69.8366C34.695 69.5299 34.5209 69.1139 34.5209 68.6801L34.5203 59.6317C34.5203 59.5955 34.5058 59.5608 34.48 59.5352C34.4541 59.5097 34.4191 59.4953 34.3825 59.4953H34.1141C34.0776 59.4953 34.0425 59.5097 34.0167 59.5352C33.9908 59.5608 33.9763 59.5955 33.9763 59.6317L33.9758 68.6801C33.9758 69.1139 33.8017 69.5299 33.4917 69.8366C33.1818 70.1434 32.7614 70.3157 32.3231 70.3157C31.8848 70.3157 31.4644 70.1434 31.1545 69.8366C30.8445 69.5299 30.6704 69.1139 30.6704 68.6801L30.6709 59.6317C30.6709 59.5564 30.6154 59.4953 30.5393 59.4953H27.8499C27.7162 59.4953 27.6957 59.3686 27.7162 59.2963L31.5497 46.8811C31.5698 46.8088 31.5255 46.7442 31.4489 46.7457H31.4484H31.1784C31.1351 46.7462 31.0929 46.7592 31.057 46.7832C31.0211 46.8072 30.993 46.841 30.9764 46.8806L29.0609 53.0595C28.9545 53.3729 28.7286 53.6327 28.4314 53.7838C28.1342 53.9348 27.7891 53.9651 27.4697 53.8681C27.1503 53.7711 26.8818 53.5546 26.7213 53.2646C26.5609 52.9746 26.5212 52.634 26.6107 52.3155L28.5307 46.1096C28.8238 45.1026 29.5365 42.8095 31.5507 42.8095H36.9531C39.1144 42.8095 39.6733 45.1026 39.9659 46.1096C39.9659 46.1096 41.9061 52.3877 41.9138 52.4244C42.2316 52.9755 43.5798 55.7341 43.5798 55.7341C43.6016 55.7674 43.6311 55.7951 43.6657 55.815C43.7004 55.8349 43.7393 55.8464 43.7793 55.8486H48.269C48.4263 55.8486 48.5107 55.7988 48.5852 55.6715L50.1515 52.4564C50.3773 50.8987 51.0905 45.9722 51.0905 45.8847C51.0905 44.1489 52.4393 42.8141 54.1259 42.8141H61.4108C63.097 42.8141 64.4463 44.1489 64.4468 45.8847L64.4473 54.696C64.4466 55.0324 64.3112 55.3548 64.0707 55.5925C63.8302 55.8302 63.5042 55.9639 63.1643 55.9642Z"/>
</mask>
<path d="M45.5992 17.0809C45.4516 16.9796 45.213 16.9699 45.0659 17.0717L37.8083 22.1346C37.6612 22.2369 37.583 22.1702 37.583 21.9926V18.4859C37.583 18.3083 37.3552 18.2142 37.1752 18.2142H32.4604C32.2809 18.2142 32.2079 18.3083 32.2079 18.4859V25.7182C32.2079 25.8958 32.0526 26.1227 31.905 26.2245L14.1028 38.6153C13.9558 38.7176 13.964 38.8418 14.1434 38.8418H22.0557C22.2352 38.8418 22.3766 38.9023 22.3766 39.0799V73.6723C22.3774 73.7587 22.4123 73.8414 22.4739 73.9026C22.5355 73.9639 22.6189 73.9988 22.7062 74H67.9039C68.0833 74 68.2597 73.8504 68.2597 73.6723V39.0799C68.2597 38.9023 68.3744 38.8418 68.5543 38.8418H76.8461C77.0261 38.8418 77.0518 38.7176 76.9042 38.6163L45.5992 17.0809ZM57.7676 37.2143C58.4198 37.2143 59.0452 37.4707 59.5064 37.9271C59.9675 38.3835 60.2266 39.0024 60.2266 39.6478C60.2266 40.2932 59.9675 40.9122 59.5064 41.3686C59.0452 41.8249 58.4198 42.0813 57.7676 42.0813C57.1154 42.0813 56.49 41.8249 56.0288 41.3686C55.5677 40.9122 55.3086 40.2932 55.3086 39.6478C55.3086 39.0024 55.5677 38.3835 56.0288 37.9271C56.49 37.4707 57.1154 37.2143 57.7676 37.2143ZM46.1478 51.602C46.6217 51.602 47.0763 51.7883 47.4114 52.12C47.7465 52.4516 47.9347 52.9014 47.9347 53.3704C47.9347 53.8394 47.7465 54.2892 47.4114 54.6208C47.0763 54.9524 46.6217 55.1387 46.1478 55.1387C45.6739 55.1387 45.2194 54.9524 44.8843 54.6208C44.5492 54.2892 44.3609 53.8394 44.3609 53.3704C44.3609 52.9014 44.5492 52.4516 44.8843 52.12C45.2194 51.7883 45.6739 51.602 46.1478 51.602ZM34.2483 37.2098C34.9005 37.2098 35.5259 37.4662 35.9871 37.9225C36.4482 38.3789 36.7073 38.9979 36.7073 39.6432C36.7073 40.2887 36.4482 40.9076 35.9871 41.364C35.5259 41.8203 34.9005 42.0767 34.2483 42.0767C33.5962 42.0767 32.9707 41.8203 32.5096 41.364C32.0484 40.9076 31.7893 40.2887 31.7893 39.6432C31.7893 38.9979 32.0484 38.3789 32.5096 37.9225C32.9707 37.4662 33.5962 37.2098 34.2483 37.2098ZM63.1643 55.9642C62.8246 55.9642 62.4989 55.8307 62.2586 55.5931C62.0183 55.3555 61.8832 55.0332 61.8829 54.697L61.8813 46.9529C61.8812 46.9179 61.8671 46.8845 61.8422 46.8598C61.8172 46.8351 61.7834 46.8212 61.7482 46.8211H61.4767C61.4414 46.8212 61.4076 46.8351 61.3826 46.8598C61.3577 46.8845 61.3436 46.9179 61.3435 46.9529V68.6806C61.3435 69.1144 61.1694 69.5304 60.8594 69.8372C60.5495 70.1439 60.1291 70.3162 59.6908 70.3162C59.2525 70.3162 58.8321 70.1439 58.5221 69.8372C58.2122 69.5304 58.0381 69.1144 58.0381 68.6806V55.896C58.0381 55.8028 57.9944 55.7637 57.9013 55.7637H57.6349C57.5419 55.7637 57.4982 55.8023 57.4982 55.896V68.6806C57.4982 69.1144 57.324 69.5304 57.0141 69.8372C56.7042 70.1439 56.2838 70.3162 55.8455 70.3162C55.4071 70.3162 54.9868 70.1439 54.6768 69.8372C54.3669 69.5304 54.1928 69.1144 54.1928 68.6806V46.9529C54.1926 46.9179 54.1786 46.8845 54.1536 46.8598C54.1287 46.8351 54.0949 46.8212 54.0596 46.8211H53.7881C53.7528 46.8212 53.719 46.8351 53.694 46.8598C53.6691 46.8845 53.655 46.9179 53.6549 46.9529L52.6033 53.2462C52.5653 53.3887 52.5159 53.4808 52.4568 53.5856C52.176 54.0818 49.5473 59.1605 49.5473 59.1605C49.5113 59.2241 49.4825 59.4078 49.4825 59.4078C49.4825 59.4078 49.4774 68.8145 49.4697 68.8873C49.3859 69.6302 48.7061 70.3167 47.8782 70.3167C47.0019 70.3167 46.3653 69.5941 46.3525 68.8028L46.3509 64.7938C46.3508 64.7589 46.3367 64.7254 46.3118 64.7007C46.2868 64.6761 46.253 64.6621 46.2178 64.662H46.0177C45.9825 64.6621 45.9487 64.6761 45.9237 64.7007C45.8988 64.7254 45.8847 64.7589 45.8846 64.7938L45.884 68.7819C45.8712 69.5732 45.0813 70.3167 44.2051 70.3167C43.3289 70.3167 42.6326 69.5692 42.6198 68.7778V59.2526C42.6198 59.1798 42.59 59.0694 42.5529 59.0063L39.6563 53.6248C39.5621 53.4609 39.4928 53.2841 39.4507 53.1002C39.4455 53.0864 37.5203 46.8806 37.5203 46.8806C37.509 46.8546 37.4519 46.7457 37.3182 46.7457H37.0477C36.9716 46.7447 36.9269 46.8088 36.9469 46.8811L40.7804 59.2963C40.801 59.3686 40.7804 59.4953 40.6467 59.4953H37.9574C37.8813 59.4953 37.8257 59.5564 37.8257 59.6317L37.8262 68.6801C37.8262 69.1139 37.6521 69.5299 37.3422 69.8366C37.0322 70.1434 36.6119 70.3157 36.1736 70.3157C35.7352 70.3157 35.3149 70.1434 35.0049 69.8366C34.695 69.5299 34.5209 69.1139 34.5209 68.6801L34.5203 59.6317C34.5203 59.5955 34.5058 59.5608 34.48 59.5352C34.4541 59.5097 34.4191 59.4953 34.3825 59.4953H34.1141C34.0776 59.4953 34.0425 59.5097 34.0167 59.5352C33.9908 59.5608 33.9763 59.5955 33.9763 59.6317L33.9758 68.6801C33.9758 69.1139 33.8017 69.5299 33.4917 69.8366C33.1818 70.1434 32.7614 70.3157 32.3231 70.3157C31.8848 70.3157 31.4644 70.1434 31.1545 69.8366C30.8445 69.5299 30.6704 69.1139 30.6704 68.6801L30.6709 59.6317C30.6709 59.5564 30.6154 59.4953 30.5393 59.4953H27.8499C27.7162 59.4953 27.6957 59.3686 27.7162 59.2963L31.5497 46.8811C31.5698 46.8088 31.5255 46.7442 31.4489 46.7457H31.4484H31.1784C31.1351 46.7462 31.0929 46.7592 31.057 46.7832C31.0211 46.8072 30.993 46.841 30.9764 46.8806L29.0609 53.0595C28.9545 53.3729 28.7286 53.6327 28.4314 53.7838C28.1342 53.9348 27.7891 53.9651 27.4697 53.8681C27.1503 53.7711 26.8818 53.5546 26.7213 53.2646C26.5609 52.9746 26.5212 52.634 26.6107 52.3155L28.5307 46.1096C28.8238 45.1026 29.5365 42.8095 31.5507 42.8095H36.9531C39.1144 42.8095 39.6733 45.1026 39.9659 46.1096C39.9659 46.1096 41.9061 52.3877 41.9138 52.4244C42.2316 52.9755 43.5798 55.7341 43.5798 55.7341C43.6016 55.7674 43.6311 55.7951 43.6657 55.815C43.7004 55.8349 43.7393 55.8464 43.7793 55.8486H48.269C48.4263 55.8486 48.5107 55.7988 48.5852 55.6715L50.1515 52.4564C50.3773 50.8987 51.0905 45.9722 51.0905 45.8847C51.0905 44.1489 52.4393 42.8141 54.1259 42.8141H61.4108C63.097 42.8141 64.4463 44.1489 64.4468 45.8847L64.4473 54.696C64.4466 55.0324 64.3112 55.3548 64.0707 55.5925C63.8302 55.8302 63.5042 55.9639 63.1643 55.9642Z" fill="#FCD161" stroke="#FCD161" stroke-width="1.5625" mask="url(#path-2-inside-1_582_1116)"/>
</svg>
