<svg width="91" height="91" viewBox="0 0 91 91" fill="none" xmlns="http://www.w3.org/2000/svg">
<circle cx="45.5" cy="45.5" r="45" stroke="#FFB800"/>
<path d="M64.8533 17.1425H38.0057V17.0755C38.0057 15.931 37.0747 15 35.9302 15H29.5028C28.3584 15 27.4274 15.931 27.4274 17.0755V17.1425H24.1467C22.4116 17.1425 21 18.5541 21 20.2892V73.8504C21 75.5855 22.4116 76.9972 24.1467 76.9972H64.8533C66.5884 76.9972 68 75.5855 68 73.8504V20.2892C68 18.5541 66.5884 17.1425 64.8533 17.1425ZM29.4359 17.0755C29.4359 17.0385 29.466 17.0085 29.5028 17.0085H35.9302C35.967 17.0085 35.9972 17.0385 35.9972 17.0755V29.3765L33.1656 27.9608C33.0244 27.8901 32.8704 27.8547 32.7165 27.8547C32.5627 27.8547 32.4087 27.8901 32.2674 27.9608L29.4359 29.3765V17.0755ZM65.9915 73.8504C65.9915 74.478 65.4809 74.9886 64.8533 74.9886H24.1467C23.5191 74.9886 23.0085 74.478 23.0085 73.8504V20.2892C23.0085 19.6616 23.5191 19.151 24.1467 19.151H27.4274V31.0014C27.4274 31.3494 27.6076 31.6727 27.9036 31.8557C28.2 32.0389 28.5697 32.0554 28.8809 31.8996L32.7167 29.9818L36.5524 31.8996C36.6943 31.9705 36.8481 32.0057 37.0016 32.0057C37.1851 32.0057 37.3682 31.9553 37.5295 31.8557C37.8256 31.6727 38.0058 31.3494 38.0058 31.0014V19.151H64.8534C65.481 19.151 65.9916 19.6616 65.9916 20.2892V73.8504H65.9915Z" fill="#FCD161"/>
<path d="M59.4257 53.418C59.425 53.4086 59.4248 53.3991 59.4238 53.3899C59.4217 53.3698 59.4181 53.3498 59.4147 53.3299C59.4125 53.3161 59.4106 53.3023 59.4078 53.2888C59.405 53.2755 59.4009 53.2623 59.3976 53.249C59.3925 53.2292 59.3877 53.2092 59.3814 53.1898C59.3786 53.1813 59.3751 53.1727 59.372 53.1641C59.3637 53.1405 59.3551 53.1172 59.3452 53.0946C59.3444 53.0929 59.344 53.0911 59.3432 53.0894L55.1448 43.6432V42.7181H56.283C56.8378 42.7181 57.2873 42.2684 57.2873 41.7138C57.2873 41.1592 56.8378 40.7095 56.283 40.7095H45.5038V39.3391C46.7478 38.919 47.6463 37.7417 47.6463 36.3577C47.6463 34.6225 46.2347 33.2109 44.4995 33.2109C42.7644 33.2109 41.3528 34.6225 41.3528 36.3577C41.3528 37.7417 42.2513 38.919 43.4953 39.3391V40.7095H32.7161C32.1613 40.7095 31.7118 41.1592 31.7118 41.7138C31.7118 42.2684 32.1613 42.7181 32.7161 42.7181H33.8542V43.6432L29.6558 53.0894C29.655 53.0911 29.6545 53.093 29.6538 53.0947C29.6439 53.1174 29.6354 53.1405 29.6272 53.164C29.6241 53.1725 29.6205 53.1811 29.6177 53.1898C29.6114 53.2092 29.6066 53.2291 29.6015 53.249C29.598 53.2623 29.5941 53.2755 29.5913 53.2888C29.5885 53.3023 29.5867 53.3162 29.5843 53.3299C29.581 53.3498 29.5774 53.3698 29.5752 53.3899C29.5743 53.3991 29.574 53.4086 29.5734 53.418C29.5713 53.4425 29.5697 53.467 29.5696 53.4915C29.5696 53.4935 29.5693 53.4954 29.5693 53.4973C29.5693 55.823 31.9421 57.7152 34.8585 57.7152C37.7749 57.7152 40.1477 55.823 40.1477 53.4973C40.1477 53.4953 40.1474 53.4934 40.1474 53.4915C40.1473 53.467 40.1457 53.4426 40.1437 53.418C40.143 53.4086 40.1427 53.3991 40.1418 53.3899C40.1396 53.3698 40.136 53.3498 40.1327 53.3299C40.1304 53.3161 40.1285 53.3023 40.1257 53.2888C40.1229 53.2755 40.1189 53.2623 40.1155 53.249C40.1105 53.2292 40.1056 53.2092 40.0993 53.1898C40.0965 53.1813 40.0931 53.1727 40.09 53.1641C40.0817 53.1405 40.0731 53.1172 40.0632 53.0946C40.0624 53.0929 40.062 53.0911 40.0612 53.0894L35.8628 43.6432V42.7181H43.4953V51.587C42.2513 52.0072 41.3528 53.1845 41.3528 54.5685V62.134H39.1434C38.5886 62.134 38.1391 62.5837 38.1391 63.1383C38.1391 63.6929 38.5886 64.1426 39.1434 64.1426H49.8557C50.4104 64.1426 50.8599 63.6929 50.8599 63.1383C50.8599 62.5837 50.4104 62.134 49.8557 62.134H47.6463V54.5685C47.6463 53.1845 46.7478 52.0072 45.5038 51.587V42.7181H53.1363V43.6432L48.9379 53.0894C48.9371 53.0911 48.9366 53.093 48.9359 53.0947C48.926 53.1174 48.9174 53.1405 48.9092 53.164C48.9062 53.1725 48.9025 53.1811 48.8997 53.1898C48.8934 53.2092 48.8886 53.2291 48.8835 53.249C48.88 53.2623 48.8762 53.2755 48.8733 53.2888C48.8705 53.3023 48.8688 53.3162 48.8664 53.3299C48.863 53.3498 48.8594 53.3698 48.8573 53.3899C48.8563 53.3991 48.8561 53.4086 48.8554 53.418C48.8534 53.4425 48.8518 53.467 48.8517 53.4915C48.8517 53.4935 48.8514 53.4954 48.8514 53.4973C48.8514 55.823 51.2241 57.7152 54.1406 57.7152C57.057 57.7152 59.4297 55.823 59.4297 53.4973C59.4297 53.4953 59.4295 53.4934 59.4295 53.4915C59.4293 53.467 59.4277 53.4425 59.4257 53.418ZM44.4995 35.2195C45.1271 35.2195 45.6377 35.7301 45.6377 36.3577C45.6377 36.9853 45.1271 37.4958 44.4995 37.4958C43.8719 37.4958 43.3614 36.9853 43.3614 36.3577C43.3614 35.7301 43.8719 35.2195 44.4995 35.2195ZM34.8585 46.329L37.598 52.493H32.1189L34.8585 46.329ZM34.8585 55.7067C33.6129 55.7067 32.5029 55.2104 31.9495 54.5015H37.7674C37.2141 55.2104 36.1041 55.7067 34.8585 55.7067ZM45.6377 62.134H43.3614V54.5685C43.3614 53.9409 43.8719 53.4303 44.4995 53.4303C45.1271 53.4303 45.6377 53.9409 45.6377 54.5685V62.134ZM54.1406 46.329L56.8801 52.493H51.4009L54.1406 46.329ZM54.1406 55.7067C52.895 55.7067 51.7849 55.2104 51.2315 54.5015H57.0495C56.4962 55.2104 55.3861 55.7067 54.1406 55.7067Z" fill="#FCD161"/>
</svg>
