<svg width="91" height="91" viewBox="0 0 91 91" fill="none" xmlns="http://www.w3.org/2000/svg">
<circle cx="45.5" cy="45.5" r="45" stroke="#FFB800"/>
<path d="M73.0005 21.8938C73.0005 20.8474 72.1362 20 71.0718 20H51.5762V27.6307C52.0599 27.3657 52.6166 27.2155 53.2089 27.2155C55.0676 27.2155 56.5754 28.6957 56.5754 30.5229C56.5754 32.3483 55.0685 33.8294 53.2089 33.8294C52.6166 33.8294 52.0599 33.6783 51.5762 33.415V41.045H59.3442C59.0753 41.5201 58.9214 42.0669 58.9214 42.6484C58.9214 44.4754 60.4284 45.9558 62.2883 45.9558C64.1474 45.9558 65.6543 44.4754 65.6543 42.6484C65.6543 42.0669 65.5005 41.5201 65.2325 41.045H73.0005V21.8938Z" fill="#FCD161"/>
<path d="M64.3111 48.4287H54.5242C54.1814 48.4287 53.8644 48.6067 53.6909 48.8954L53.7004 48.8794L53.6892 48.8971C53.6007 49.0449 53.556 49.2119 53.556 49.3782C53.556 49.5368 53.5973 49.6971 53.678 49.8407L54.2949 50.9319C54.4332 51.1774 54.501 51.4357 54.502 51.7175C54.5011 52.153 54.331 52.5546 54.0183 52.8636C53.7039 53.1708 53.2941 53.3379 52.8516 53.3395C52.4083 53.3378 51.9986 53.1708 51.6832 52.8636L51.6845 52.8653C51.3708 52.5547 51.2012 52.1522 51.2004 51.7176C51.2012 51.4365 51.269 51.1775 51.4069 50.9311L52.0242 49.8408C52.1054 49.6972 52.1462 49.5378 52.1462 49.3783C52.1462 49.212 52.1015 49.045 52.0116 48.8955C51.8377 48.6061 51.5207 48.4289 51.1784 48.4289H43.8555V44.5764C45.1789 44.5561 46.429 44.0439 47.3653 43.1223C48.324 42.183 48.8551 40.9231 48.8541 39.5922C48.855 38.2597 48.3236 36.9997 47.3653 36.0613C46.4297 35.1396 45.1794 34.6282 43.8555 34.608V28.3341C43.8551 27.8092 43.422 27.3838 42.8877 27.3838H22.6437C21.673 27.3831 20.7516 27.7569 20.0669 28.4311C19.387 29.0996 19.0008 30.0169 19 30.9638V69.2653C18.9992 70.218 19.3805 71.1227 20.0669 71.7961C20.7474 72.4637 21.6799 72.8434 22.6437 72.8443H61.6383C62.5997 72.8435 63.5326 72.4637 64.2122 71.7961C64.8987 71.1227 65.2792 70.2188 65.2784 69.2653V49.379C65.2785 48.8542 64.8454 48.4287 64.3111 48.4287ZM21.9922 30.9638C21.9922 30.7443 22.0961 30.595 22.1812 30.5114C22.2692 30.4253 22.4208 30.3224 22.6437 30.3224H40.8632V37.948C40.8632 38.132 40.9624 38.3016 41.1235 38.3953C41.2059 38.4425 41.2982 38.4663 41.391 38.4663C41.4795 38.4663 41.5676 38.4451 41.6475 38.4013L42.7579 37.7953C43.071 37.6248 43.4121 37.5378 43.7713 37.5378C44.3292 37.5378 44.8545 37.7514 45.2493 38.1388C45.6445 38.5278 45.8619 39.0443 45.8619 39.592C45.8619 40.1397 45.6445 40.6554 45.2501 41.0435C44.8545 41.4318 44.3292 41.6453 43.7713 41.6453C43.4117 41.6453 43.071 41.5584 42.7583 41.3878L41.6471 40.7818C41.5677 40.738 41.4792 40.7169 41.3911 40.7169C41.2983 40.7169 41.2059 40.7405 41.1236 40.7887C40.9625 40.8815 40.8633 41.0511 40.8633 41.2351V48.8608H36.0565C36.066 48.7434 36.0707 48.6262 36.0707 48.5106C36.0707 47.2912 35.5874 46.1459 34.7107 45.286C33.8349 44.4243 32.6691 43.9501 31.4277 43.9501C30.1868 43.9501 29.021 44.4244 28.1455 45.2852C27.268 46.1451 26.7848 47.2912 26.7852 48.5098C26.7852 48.6262 26.7898 48.7428 26.7993 48.8609H21.9922V30.9638ZM40.8633 69.9057H22.6437C22.4208 69.9057 22.2692 69.8028 22.1833 69.7192C22.0961 69.6332 21.9922 69.4838 21.9922 69.2653V51.3665H29.7546C29.9414 51.3665 30.1145 51.2694 30.2094 51.1116C30.3044 50.9529 30.307 50.7571 30.216 50.5968L29.5996 49.5056C29.4256 49.1975 29.3375 48.8625 29.3371 48.5106C29.3375 47.9628 29.5554 47.4465 29.9488 47.0582C30.3452 46.6709 30.8706 46.4564 31.4277 46.4564C31.9848 46.4564 32.5102 46.6709 32.9053 47.0573C33.3001 47.4464 33.5179 47.9628 33.5183 48.5097C33.5179 48.8633 33.4293 49.1983 33.2571 49.5047L32.6393 50.5959C32.5482 50.7571 32.551 50.9529 32.6459 51.1107C32.7408 51.2693 32.914 51.3664 33.1008 51.3664H40.8632V56.0897C40.7437 56.0805 40.6248 56.0763 40.5071 56.0763C39.2653 56.0763 38.0995 56.5506 37.2249 57.4113C36.347 58.2721 35.8642 59.4173 35.865 60.636C35.8642 61.8546 36.347 63.0006 37.2242 63.8606C38.0996 64.7223 39.2654 65.1965 40.5072 65.1965C40.6258 65.1965 40.7447 65.1922 40.8633 65.183V69.9057ZM62.2869 69.2653C62.2869 69.4838 62.1822 69.6323 62.0963 69.7176C62.0086 69.8029 61.8574 69.9058 61.6349 69.9058H43.4156V62.2802C43.4156 62.0962 43.3169 61.9266 43.1553 61.8337C43.0728 61.7856 42.9804 61.762 42.8877 61.762C42.7997 61.762 42.7112 61.7832 42.6317 61.827L41.5196 62.433C41.2073 62.6034 40.8666 62.6903 40.5071 62.6903C39.95 62.6903 39.4246 62.4761 39.0295 62.0894C38.6347 61.7012 38.4169 61.1848 38.4165 60.637C38.4169 60.0885 38.6348 59.5729 39.0291 59.1847C39.4239 58.7973 39.9492 58.5829 40.5072 58.5821C40.8642 58.5821 41.2052 58.669 41.5197 58.8394L42.6313 59.4463C42.7113 59.4902 42.7993 59.5113 42.8878 59.5113C42.9806 59.5113 43.0729 59.4876 43.1554 59.4405C43.3165 59.3468 43.4157 59.1771 43.4157 58.9931V51.3666H48.2228C48.2134 51.4839 48.2086 51.6013 48.2086 51.7176C48.2082 52.9354 48.6911 54.0806 49.5677 54.9414C50.444 55.8039 51.6102 56.2782 52.8512 56.2782C54.0921 56.2782 55.258 55.8039 56.1343 54.9423C57.0114 54.0824 57.4934 52.9371 57.4934 51.7177C57.4934 51.6012 57.4891 51.4848 57.4797 51.3667H62.2872V69.2653H62.2869Z" fill="#FCD161"/>
</svg>
