<svg width="35" height="35" viewBox="0 0 35 35" fill="none" xmlns="http://www.w3.org/2000/svg">
<path d="M22.2432 17.5082H19.3814C19.3814 22.0805 19.3814 27.7084 19.3814 27.7084H15.1408C15.1408 27.7084 15.1408 22.135 15.1408 17.5082H13.125V13.9032H15.1408V11.5713C15.1408 9.90131 15.9344 7.29175 19.4204 7.29175L22.5628 7.30379V10.8033C22.5628 10.8033 20.6533 10.8033 20.282 10.8033C19.9107 10.8033 19.3829 10.9889 19.3829 11.7853V13.9039H22.6138L22.2432 17.5082Z" fill="black"/>
<mask id="mask0_127_235" style="mask-type:luminance" maskUnits="userSpaceOnUse" x="13" y="7" width="10" height="21">
<path d="M22.2432 17.5082H19.3814C19.3814 22.0805 19.3814 27.7084 19.3814 27.7084H15.1408C15.1408 27.7084 15.1408 22.135 15.1408 17.5082H13.125V13.9032H15.1408V11.5713C15.1408 9.90131 15.9344 7.29175 19.4204 7.29175L22.5628 7.30379V10.8033C22.5628 10.8033 20.6533 10.8033 20.282 10.8033C19.9107 10.8033 19.3829 10.9889 19.3829 11.7853V13.9039H22.6138L22.2432 17.5082Z" fill="white"/>
</mask>
<g mask="url(#mask0_127_235)">
<rect width="35" height="35" fill="black"/>
</g>
</svg>
