<svg width="35" height="35" viewBox="0 0 35 35" fill="none" xmlns="http://www.w3.org/2000/svg">
<path fill-rule="evenodd" clip-rule="evenodd" d="M9.69784 8.75C8.2429 8.75 7.29102 9.70505 7.29102 10.9598C7.29102 12.188 8.2153 13.1707 9.64201 13.1707H9.66961C11.1531 13.1707 12.0755 12.188 12.0755 10.9598C12.0473 9.70505 11.1531 8.75 9.69784 8.75ZM27.1305 20.3724V27.7083H22.8773V20.864C22.8773 19.1455 22.2632 17.9719 20.7233 17.9719C19.5481 17.9719 18.85 18.762 18.5417 19.5271C18.4297 19.8005 18.4008 20.1802 18.4008 20.5637V27.708H14.1474C14.1474 27.708 14.2044 16.1161 14.1474 14.9161H18.4012V16.7289C18.3971 16.7356 18.3924 16.7422 18.3876 16.7487C18.3823 16.7562 18.377 16.7635 18.3729 16.7707H18.4012V16.7289C18.9664 15.8591 19.9744 14.6158 22.2344 14.6158C25.0326 14.6158 27.1305 16.444 27.1305 20.3724ZM11.7957 27.7083H7.54381V14.9161H11.7957V27.7083Z" fill="black"/>
<mask id="mask0_127_236" style="mask-type:luminance" maskUnits="userSpaceOnUse" x="7" y="8" width="21" height="20">
<path fill-rule="evenodd" clip-rule="evenodd" d="M9.69784 8.75C8.2429 8.75 7.29102 9.70505 7.29102 10.9598C7.29102 12.188 8.2153 13.1707 9.64201 13.1707H9.66961C11.1531 13.1707 12.0755 12.188 12.0755 10.9598C12.0473 9.70505 11.1531 8.75 9.69784 8.75ZM27.1305 20.3724V27.7083H22.8773V20.864C22.8773 19.1455 22.2632 17.9719 20.7233 17.9719C19.5481 17.9719 18.85 18.762 18.5417 19.5271C18.4297 19.8005 18.4008 20.1802 18.4008 20.5637V27.708H14.1474C14.1474 27.708 14.2044 16.1161 14.1474 14.9161H18.4012V16.7289C18.3971 16.7356 18.3924 16.7422 18.3876 16.7487C18.3823 16.7562 18.377 16.7635 18.3729 16.7707H18.4012V16.7289C18.9664 15.8591 19.9744 14.6158 22.2344 14.6158C25.0326 14.6158 27.1305 16.444 27.1305 20.3724ZM11.7957 27.7083H7.54381V14.9161H11.7957V27.7083Z" fill="white"/>
</mask>
<g mask="url(#mask0_127_236)">
<rect width="35" height="35" fill="black"/>
</g>
</svg>
