<svg width="101" height="12" viewBox="0 0 101 12" fill="none" xmlns="http://www.w3.org/2000/svg">
<path d="M51.3767 5.31936C51.0385 5.58521 50.9902 6.15315 51.2921 6.53983C51.6907 7.04735 52.5239 6.95068 52.7292 6.37066C52.8621 5.98397 52.7292 5.4402 52.4636 5.27102C52.2341 5.12602 51.6061 5.16227 51.3767 5.31936Z" fill="white"/>
<path d="M80.1794 5.36819C79.8413 5.63403 79.7929 6.20198 80.0949 6.58866C80.4934 7.09618 81.3267 6.99951 81.532 6.41949C81.6648 6.0328 81.532 5.48903 81.2663 5.31985C81.0368 5.17485 80.4089 5.2111 80.1794 5.36819Z" fill="white"/>
<path d="M22.7801 5.20154C22.5024 5.31029 22.2488 5.93866 22.3937 6.19242C22.7198 6.82078 23.2874 6.98995 23.8187 6.61535C24.1931 6.36159 24.1931 5.56406 23.8187 5.31029C23.553 5.11695 23.0941 5.06862 22.7801 5.20154Z" fill="white"/>
<path d="M0.546875 6.02431V11.332L1.11693 11.3072C1.66221 11.2824 1.66221 11.2576 1.78613 6.44595L1.91006 1.60948L2.52969 2.62638C2.87668 3.17203 4.26465 5.32985 5.60305 7.38845C7.90808 10.9104 8.10636 11.1584 8.82513 11.1584C9.64304 11.1584 9.39519 11.4808 14.2531 3.8913L15.6658 1.65909V6.47076V11.3072L16.2855 11.2824L16.9299 11.2328L16.9795 5.99951L17.029 0.741397H15.9137H14.7984L11.8241 5.30504C10.1883 7.83489 8.80034 9.89349 8.72599 9.89349C8.65163 9.89349 7.26366 7.83489 5.62784 5.30504L2.6784 0.741397H1.61264H0.546875V6.02431Z" fill="white"/>
<path d="M29.2988 6.00029V11.2832H29.9185H30.5381L30.5629 6.44673C30.5629 2.60235 30.6372 1.70947 30.8603 2.0567C31.0338 2.30473 32.4218 4.46254 33.9832 6.84357C37.7258 12.5977 37.2797 12.6473 41.3692 6.34752L44.4178 1.65986V6.47153V11.2832H45.0374H45.6571V6.00029V0.742173H44.5913H43.5007L40.7248 4.98339C39.1881 7.31482 37.8745 9.37342 37.8001 9.57184C37.7258 9.77026 37.6019 9.91907 37.5027 9.89427C37.4284 9.89427 36.0156 7.83567 34.3798 5.33062L31.4056 0.742173H30.3646H29.2988V6.00029Z" fill="white"/>
<path d="M57.8008 5.97704V11.1855L65.1868 11.1111C71.6061 11.0367 72.6471 10.9871 73.3411 10.6151C74.2582 10.0942 74.7786 8.80451 74.5556 7.5892C74.3573 6.5971 73.8368 6.07625 72.6719 5.75382L71.8044 5.5306L72.4984 5.33218C73.4155 5.08415 73.9112 4.31528 73.9112 3.14956C73.9112 1.83503 73.5642 1.31418 72.4736 0.991752C71.9531 0.842938 68.6567 0.743728 64.6911 0.743728H57.8008V5.97704ZM71.0361 1.88464C72.3745 2.08306 72.7958 2.60391 72.548 3.74482C72.2753 4.98494 71.8292 5.05935 65.3107 5.15856L59.2879 5.25777V3.4968V1.73582H64.5919C67.4918 1.73582 70.3917 1.81023 71.0361 1.88464ZM71.8044 6.47309C72.9693 6.79552 73.1676 7.01874 73.1676 8.20926C73.1676 8.80451 72.9941 9.25096 72.6471 9.57339C72.1762 9.99503 71.6061 10.0446 65.7073 10.119L59.2879 10.1935V8.20926V6.20026H65.0628C68.4832 6.20026 71.2096 6.32427 71.8044 6.47309Z" fill="white"/>
<path d="M90.743 4.38719C89.6029 6.42099 88.2645 8.75242 87.7688 9.5957C87.2483 10.4142 86.8765 11.1583 86.9509 11.2079C87.0005 11.2823 87.3474 11.2823 87.7192 11.2327C88.2397 11.1583 88.5867 10.8358 89.0328 9.99254L89.6773 8.87643L93.7668 8.82683L97.8812 8.80202L98.5256 9.94293C98.9469 10.7366 99.3683 11.1335 99.7896 11.2079C100.657 11.3815 100.756 11.2079 100.211 10.439C99.9631 10.0917 98.6247 7.76032 97.2367 5.25528L94.6839 0.741235H93.742H92.8002L90.743 4.38719ZM95.6009 4.68482C96.4684 6.24737 97.1872 7.5619 97.1376 7.5867C96.9641 7.78512 90.396 7.68591 90.4456 7.5123C90.4704 7.38828 90.9413 6.545 91.4866 5.62731C92.0566 4.70962 92.7506 3.4447 93.048 2.84944C93.3455 2.22938 93.6925 1.75813 93.7916 1.78294C93.8907 1.83254 94.7086 3.12227 95.6009 4.68482Z" fill="#DCB443"/>
</svg>
